<?xml version="1.0" encoding="UTF-8"?>
<svg version="1.1" xmlns="http://www.w3.org/2000/svg" width="348" height="348">
<path d="M0 0 C114.84 0 229.68 0 348 0 C348 114.84 348 229.68 348 348 C233.16 348 118.32 348 0 348 C0 233.16 0 118.32 0 0 Z " fill="#FDFDFE" transform="translate(0,0)"/>
<path d="M0 0 C1.89492187 -0.02416992 1.89492187 -0.02416992 3.828125 -0.04882812 C21.8902104 -0.0582159 38.70572083 7.70180233 51.625 20.3125 C65.60110627 34.85952565 73.35287323 52.97410782 73.09375 73.18774414 C72.2969672 93.76922484 63.26205315 112.52662606 48.25 126.5625 C34.14871996 138.54256184 18.92376973 143.3125 0.625 143.3125 C0.625 134.7325 0.625 126.1525 0.625 117.3125 C5.575 116.8175 5.575 116.8175 10.625 116.3125 C23.95760502 112.35791377 33.93762026 104.4751719 40.625 92.3125 C41.0375 91.62414062 41.45 90.93578125 41.875 90.2265625 C46.51658852 81.04008521 45.89345837 68.8199166 43.96484375 58.92578125 C40.42225481 48.17532738 32.91644756 38.26861007 22.91796875 32.84375 C10.40851815 26.95694972 -2.45749843 25.0268133 -15.8828125 29.26953125 C-20.15039957 31.05549637 -23.72684343 33.49504322 -27.375 36.3125 C-28.00277344 36.76496094 -28.63054687 37.21742187 -29.27734375 37.68359375 C-37.30889249 43.88739398 -41.86577889 53.64878177 -44.375 63.3125 C-44.705 66.2825 -45.035 69.2525 -45.375 72.3125 C-53.955 72.3125 -62.535 72.3125 -71.375 72.3125 C-71.375 50.6756161 -65.00130015 35.3000676 -50.1875 19.625 C-35.81763028 5.67367017 -19.66892953 -0.04987051 0 0 Z " fill="#0B0847" transform="translate(195.375,7.6875)"/>
<path d="M0 0 C0 8.58 0 17.16 0 26 C-2.26875 26.391875 -4.5375 26.78375 -6.875 27.1875 C-19.26956408 29.58614581 -29.22995402 35.15273747 -36.85546875 45.5234375 C-42.05598969 53.86995259 -44.58958528 61.27047124 -44.5625 71.125 C-44.56008301 72.04498779 -44.55766602 72.96497559 -44.55517578 73.9128418 C-44.32954774 82.35177307 -42.3124846 88.66678886 -38 96 C-37.54367188 96.78632812 -37.08734375 97.57265625 -36.6171875 98.3828125 C-32.87396165 104.0083462 -27.76434441 107.60727158 -22 111 C-20.70835938 111.76570313 -20.70835938 111.76570313 -19.390625 112.546875 C-9.21994706 117.6609447 2.91313684 117.62825702 13.859375 115.11328125 C26.75101932 110.55883883 35.80293988 101.86430549 41.8125 89.6875 C44.60441132 83.77017259 44.83777012 78.9733793 46 72 C54.58 72 63.16 72 72 72 C72 80.90563573 71.80658343 86.9423895 69 95 C68.6596875 95.9796875 68.319375 96.959375 67.96875 97.96875 C65.07019901 105.56765395 61.04122769 111.65552908 56 118 C55.55269531 118.62390625 55.10539062 119.2478125 54.64453125 119.890625 C43.7459023 134.24328097 25.24298443 141.56388892 8 144 C-14.63757338 146.26889057 -32.94607802 138.12062101 -50.125 124.2890625 C-58.97634411 116.21630885 -65.16047235 104.17227262 -69 93 C-69.47759766 91.65808594 -69.47759766 91.65808594 -69.96484375 90.2890625 C-75.23411514 72.95145986 -72.55134916 54.11986504 -64.3125 38.25 C-54.1707732 19.84306239 -38.31261985 7.24821262 -18.3125 1 C-13 0 -13 0 0 0 Z " fill="#0B0847" transform="translate(121,8)"/>
<path d="M0 0 C2.69277035 1.4252942 4.65692418 3.00589292 7 5 C7.78375 4.360625 8.5675 3.72125 9.375 3.0625 C13.47821171 -0.16145205 15.76450289 -0.34903314 21 0 C25.71274304 1.7557278 28.22219534 3.83365987 31 8 C31.45410156 10.9543457 31.45410156 10.9543457 31.390625 14.17578125 C31.37773437 15.33271484 31.36484375 16.48964844 31.3515625 17.68164062 C31.31804687 18.87982422 31.28453125 20.07800781 31.25 21.3125 C31.23195312 22.53001953 31.21390625 23.74753906 31.1953125 25.00195312 C31.14825131 28.00210422 31.0825131 31.00064889 31 34 C27.7 34 24.4 34 21 34 C20.94392578 31.77830078 20.94392578 31.77830078 20.88671875 29.51171875 C20.82106646 27.57028686 20.75461887 25.62888174 20.6875 23.6875 C20.65366211 22.22280273 20.65366211 22.22280273 20.61914062 20.72851562 C20.58369141 19.79072266 20.54824219 18.85292969 20.51171875 17.88671875 C20.48553467 17.02264404 20.45935059 16.15856934 20.43237305 15.26831055 C19.91180301 12.53730194 19.26980476 11.58438324 17 10 C13.38537214 10.07578955 13.38537214 10.07578955 10 11 C8.79729036 13.40541929 8.79683337 15.10366591 8.68359375 17.7890625 C8.62075195 19.20058594 8.62075195 19.20058594 8.55664062 20.640625 C8.51732422 21.62546875 8.47800781 22.6103125 8.4375 23.625 C8.37272461 25.11386719 8.37272461 25.11386719 8.30664062 26.6328125 C8.20039053 29.08837033 8.09967545 31.54416651 8 34 C4.7 34 1.4 34 -2 34 C-2.03738281 32.51886719 -2.07476562 31.03773438 -2.11328125 29.51171875 C-2.17893354 27.57028686 -2.24538113 25.62888174 -2.3125 23.6875 C-2.33505859 22.71103516 -2.35761719 21.73457031 -2.38085938 20.72851562 C-2.4340332 19.32182617 -2.4340332 19.32182617 -2.48828125 17.88671875 C-2.51446533 17.02264404 -2.54064941 16.15856934 -2.56762695 15.26831055 C-3.08447577 12.55682418 -3.81202861 11.64073189 -6 10 C-8.5 9.5 -8.5 9.5 -11 10 C-13.18797139 11.64073189 -13.91552423 12.55682418 -14.43237305 15.26831055 C-14.45855713 16.13238525 -14.48474121 16.99645996 -14.51171875 17.88671875 C-14.54716797 18.82451172 -14.58261719 19.76230469 -14.61914062 20.72851562 C-14.65297852 22.19321289 -14.65297852 22.19321289 -14.6875 23.6875 C-14.72166016 24.67556641 -14.75582031 25.66363281 -14.79101562 26.68164062 C-14.87349569 29.12069399 -14.93842433 31.56032939 -15 34 C-18.3 34 -21.6 34 -25 34 C-25 23.11 -25 12.22 -25 1 C-21.7 1 -18.4 1 -15 1 C-15 1.99 -15 2.98 -15 4 C-14.195625 3.34 -13.39125 2.68 -12.5625 2 C-8.53824523 -0.64803557 -4.67901854 -0.97951772 0 0 Z " fill="#0B0947" transform="translate(142,170)"/>
<path d="M0 0 C2.5625 1.5 2.5625 1.5 4 3 C4.33 2.01 4.66 1.02 5 0 C8.63 0 12.26 0 16 0 C16 11.22 16 22.44 16 34 C12.37 34 8.74 34 5 34 C5 33.01 5 32.02 5 31 C4.195625 31.495 3.39125 31.99 2.5625 32.5 C-1.82173392 34.34599323 -5.31532467 35.01663961 -10 34 C-14.13208631 31.5817904 -17.30855314 28.52640709 -19 24 C-19.63424901 17.87875952 -19.91601252 12.04341253 -17.375 6.375 C-11.95290903 0.95290903 -7.64570467 -1.26219413 0 0 Z " fill="#110E4B" transform="translate(199,170)"/>
<path d="M0 0 C3.63 0 7.26 0 11 0 C11.06058594 1.56492188 11.12117187 3.12984375 11.18359375 4.7421875 C11.26799066 6.78646819 11.35263908 8.83073852 11.4375 10.875 C11.47681641 11.90753906 11.51613281 12.94007813 11.55664062 14.00390625 C11.61948242 15.48310547 11.61948242 15.48310547 11.68359375 16.9921875 C11.72025146 17.90339355 11.75690918 18.81459961 11.79467773 19.75341797 C11.86577065 22.03483481 11.86577065 22.03483481 13 24 C16.41642759 24.25015873 16.41642759 24.25015873 20 24 C22.08745045 20.86882433 22.27653996 19.93053776 22.4140625 16.33203125 C22.45273437 15.43935547 22.49140625 14.54667969 22.53125 13.62695312 C22.57765625 12.23379883 22.57765625 12.23379883 22.625 10.8125 C22.66367187 9.87212891 22.70234375 8.93175781 22.7421875 7.96289062 C22.83642674 5.64224934 22.91930123 3.32115159 23 1 C26.3 1 29.6 1 33 1 C33 11.89 33 22.78 33 34 C29.7 34 26.4 34 23 34 C22.67 33.01 22.34 32.02 22 31 C21.360625 31.495 20.72125 31.99 20.0625 32.5 C15.94059396 34.51889276 12.51111052 34.84980427 8 34 C4.68501541 32.2933448 2.52299292 30.05566265 0.85205078 26.68286133 C-0.08871541 23.72066083 -0.22849867 21.36462594 -0.1953125 18.26171875 C-0.18886719 17.19501953 -0.18242187 16.12832031 -0.17578125 15.02929688 C-0.15902344 13.92650391 -0.14226562 12.82371094 -0.125 11.6875 C-0.11597656 10.56537109 -0.10695312 9.44324219 -0.09765625 8.28710938 C-0.07414594 5.52464783 -0.03827662 2.7622964 0 0 Z " fill="#0F0D4A" transform="translate(241,170)"/>
<path d="M0 0 C4.47883666 2.1594391 6.91418379 4.48073155 9 9 C9 9.99 9 10.98 9 12 C7.37581255 12.08090971 5.75048255 12.13914995 4.125 12.1875 C3.22007813 12.22230469 2.31515625 12.25710937 1.3828125 12.29296875 C0.20332031 12.14794922 0.20332031 12.14794922 -1 12 C-1.66 11.01 -2.32 10.02 -3 9 C-5.58380177 8.74969023 -5.58380177 8.74969023 -8 9 C-8 9.99 -8 10.98 -8 12 C-7.34773438 12.17015625 -6.69546875 12.3403125 -6.0234375 12.515625 C-0.64614735 14.00667301 3.6159348 15.51523022 8 19 C9.42662219 21.85324437 9.31033868 23.83454549 9 27 C6.90741149 30.17496188 5.17308714 31.88460857 2 34 C-3.43639207 34.62420523 -9.83590284 35.32957134 -14.625 32.25 C-16.74466235 30.24189882 -18.53465623 28.5236476 -20 26 C-20 25.01 -20 24.02 -20 23 C-16.37 23 -12.74 23 -9 23 C-8.67 23.66 -8.34 24.32 -8 25 C-5.67843403 25.40729228 -3.3431213 25.74438677 -1 26 C-1 24.68 -1 23.36 -1 22 C-1.59167969 21.87882812 -2.18335937 21.75765625 -2.79296875 21.6328125 C-13.62788272 19.33503303 -13.62788272 19.33503303 -17.3125 15.75 C-19.36104841 12.41162481 -19.72150476 10.84802539 -19 7 C-13.28979396 0.20948471 -8.56596462 -0.99262251 0 0 Z " fill="#15124E" transform="translate(101,170)"/>
<path d="M0 0 C3.3 0 6.6 0 10 0 C10 14.52 10 29.04 10 44 C6.7 44 3.4 44 0 44 C0 29.48 0 14.96 0 0 Z " fill="#0A0745" transform="translate(223,160)"/>
<path d="M0 0 C3.3 0 6.6 0 10 0 C10 14.19 10 28.38 10 43 C6.7 43 3.4 43 0 43 C0 28.81 0 14.62 0 0 Z " fill="#0A0745" transform="translate(65,161)"/>
<path d="M0 0 C2.375 1.5 2.375 1.5 4 4 C4.81753559 8.07099353 4.65416433 10.99359333 2.375 14.5 C-0.68406701 16.43204232 -2.4427796 16.52979878 -6 16 C-8.03667615 14.45493534 -8.86073078 13.27853844 -10 11 C-10.35872645 7.12575435 -10.56710729 4.85066094 -8.375 1.5625 C-5.28314769 -0.47161336 -3.63632575 -0.60605429 0 0 Z " fill="#F6F6F8" transform="translate(200,179)"/>
<path d="M0 0 C2.29141286 -0.05384521 4.58318188 -0.09272087 6.875 -0.125 C8.78925781 -0.15980469 8.78925781 -0.15980469 10.7421875 -0.1953125 C14 0 14 0 16 2 C16.26991906 4.68839385 16.08737357 7.29141936 16 10 C15.01 10 14.02 10 13 10 C13 7.69 13 5.38 13 3 C12.01 3 11.02 3 10 3 C10 5.31 10 7.62 10 10 C8.68 10 7.36 10 6 10 C6 7.69 6 5.38 6 3 C5.34 3 4.68 3 4 3 C4 5.31 4 7.62 4 10 C2.68 10 1.36 10 0 10 C0 6.7 0 3.4 0 0 Z " fill="#403E6E" transform="translate(226,227)"/>
<path d="M0 0 C-0.33 4.62 -0.66 9.24 -1 14 C-3.64 14 -6.28 14 -9 14 C-9 9.71 -9 5.42 -9 1 C-4 0 -4 0 0 0 Z " fill="#4A4976" transform="translate(177,223)"/>
<path d="M0 0 C2.12472576 -0.05386629 4.24983652 -0.09273071 6.375 -0.125 C7.55835937 -0.14820313 8.74171875 -0.17140625 9.9609375 -0.1953125 C13 0 13 0 15 2 C15.26991906 4.68839385 15.08737357 7.29141936 15 10 C14.01 10 13.02 10 12 10 C12 7.69 12 5.38 12 3 C11.01 3 10.02 3 9 3 C9 5.31 9 7.62 9 10 C8.01 10 7.02 10 6 10 C6 7.69 6 5.38 6 3 C4.68 3 3.36 3 2 3 C2 4.98 2 6.96 2 9 C1.34 9 0.68 9 0 9 C0 6.03 0 3.06 0 0 Z " fill="#211F56" transform="translate(100,227)"/>
<path d="M0 0 C3.375 -0.125 3.375 -0.125 7 0 C9 2 9 2 9.1953125 3.9453125 C9.13020833 5.96354167 9.06510417 7.98177083 9 10 C8.01 10 7.02 10 6 10 C6 7.69 6 5.38 6 3 C5.01 3 4.02 3 3 3 C3 5.31 3 7.62 3 10 C2.01 10 1.02 10 0 10 C0 6.7 0 3.4 0 0 Z " fill="#2C295F" transform="translate(157,227)"/>
<path d="M0 0 C2.5 0.25 2.5 0.25 4.5 2.25 C4.5 3.24 4.5 4.23 4.5 5.25 C2.52 5.25 0.54 5.25 -1.5 5.25 C-1.5 5.91 -1.5 6.57 -1.5 7.25 C0.15 6.92 1.8 6.59 3.5 6.25 C2.84 7.57 2.18 8.89 1.5 10.25 C-1.36724686 9.67655063 -2.3614515 9.3885485 -4.5 7.25 C-4.75 4.75 -4.75 4.75 -4.5 2.25 C-2.5 0.25 -2.5 0.25 0 0 Z " fill="#2E2C60" transform="translate(194.5,226.75)"/>
<path d="M0 0 C6.15234375 -0.09765625 6.15234375 -0.09765625 8 0 C9 1 9 1 9.09765625 2.84765625 C9.04882812 5.92382812 9.04882812 5.92382812 9 9 C8.34 9 7.68 9 7 9 C7 7.02 7 5.04 7 3 C5.68 3 4.36 3 3 3 C3 5.31 3 7.62 3 10 C2.01 10 1.02 10 0 10 C0 6.7 0 3.4 0 0 Z " fill="#181650" transform="translate(178,227)"/>
<path d="M0 0 C0.99 0 1.98 0 3 0 C3.33 1.98 3.66 3.96 4 6 C4.66 6 5.32 6 6 6 C6.33 4.02 6.66 2.04 7 0 C7.66 0 8.32 0 9 0 C9 2.97 9 5.94 9 9 C6.69 9.33 4.38 9.66 2 10 C-0.4294516 6.3558226 -0.16179575 4.28758728 0 0 Z " fill="#1A1951" transform="translate(134,227)"/>
<path d="M0 0 C1.2375 0.1546875 1.2375 0.1546875 2.5 0.3125 C3.16 1.3025 3.82 2.2925 4.5 3.3125 C2.52 3.3125 0.54 3.3125 -1.5 3.3125 C-1.5 4.6325 -1.5 5.9525 -1.5 7.3125 C0.48 6.9825 2.46 6.6525 4.5 6.3125 C3.84 7.6325 3.18 8.9525 2.5 10.3125 C-2.25 9.5625 -2.25 9.5625 -4.5 7.3125 C-4.75 4.8125 -4.75 4.8125 -4.5 2.3125 C-2.5 0.3125 -2.5 0.3125 0 0 Z " fill="#27255C" transform="translate(209.5,226.6875)"/>
<path d="M0 0 C0.66 0 1.32 0 2 0 C2 2.97 2 5.94 2 9 C-1.375 9.625 -1.375 9.625 -5 10 C-7 8 -7 8 -7.1875 4.9375 C-7 2 -7 2 -6 1 C-4.33382885 0.95936168 -2.66611905 0.957279 -1 1 C-1.99 1.33 -2.98 1.66 -4 2 C-4 3.65 -4 5.3 -4 7 C-3.01 6.67 -2.02 6.34 -1 6 C-0.67 4.02 -0.34 2.04 0 0 Z " fill="#201E56" transform="translate(125,227)"/>
<path d="M0 0 C1.65 0 3.3 0 5 0 C5.33 0.99 5.66 1.98 6 3 C5.01 3.495 5.01 3.495 4 4 C4.99 4.66 5.98 5.32 7 6 C6.34 7.32 5.68 8.64 5 10 C3.35 9.67 1.7 9.34 0 9 C-0.33 8.01 -0.66 7.02 -1 6 C0.32 6 1.64 6 3 6 C1.68 5.34 0.36 4.68 -1 4 C-0.67 2.68 -0.34 1.36 0 0 Z " fill="#201E55" transform="translate(91,227)"/>
<path d="M0 0 C2.5 0.25 2.5 0.25 4.5 2.25 C4.625 5.375 4.625 5.375 4.5 8.25 C3.51 8.58 2.52 8.91 1.5 9.25 C0.84 8.59 0.18 7.93 -0.5 7.25 C0.16 7.25 0.82 7.25 1.5 7.25 C1.5 5.93 1.5 4.61 1.5 3.25 C0.51 3.25 -0.48 3.25 -1.5 3.25 C-1.5 4.57 -1.5 5.89 -1.5 7.25 C-2.49 7.58 -3.48 7.91 -4.5 8.25 C-4.625 5.375 -4.625 5.375 -4.5 2.25 C-2.5 0.25 -2.5 0.25 0 0 Z " fill="#232158" transform="translate(220.5,226.75)"/>
<path d="M0 0 C2.5 0.25 2.5 0.25 4.5 2.25 C4.125 4.375 4.125 4.375 3.5 6.25 C3.17 5.26 2.84 4.27 2.5 3.25 C1.18 3.25 -0.14 3.25 -1.5 3.25 C-1.23323796 5.23491642 -1.23323796 5.23491642 -0.5 7.25 C0.49 7.58 1.48 7.91 2.5 8.25 C2.5 8.91 2.5 9.57 2.5 10.25 C-0.47 9.755 -0.47 9.755 -3.5 9.25 C-4.125 5.875 -4.125 5.875 -4.5 2.25 C-2.5 0.25 -2.5 0.25 0 0 Z " fill="#222058" transform="translate(150.5,226.75)"/>
<path d="M0 0 C0.33 0 0.66 0 1 0 C1 3.3 1 6.6 1 10 C0.34 9.34 -0.32 8.68 -1 8 C-1.99 8.495 -1.99 8.495 -3 9 C-5.125 8.0625 -5.125 8.0625 -7 7 C-7 5.68 -7 4.36 -7 3 C-5.68 3 -4.36 3 -3 3 C-2.67 3.66 -2.34 4.32 -2 5 C-1.34 3.35 -0.68 1.7 0 0 Z " fill="#9B9AB3" transform="translate(156,227)"/>
<path d="M0 0 C0.99 0 1.98 0 3 0 C3 4.29 3 8.58 3 13 C2.01 13 1.02 13 0 13 C0 8.71 0 4.42 0 0 Z " fill="#28275C" transform="translate(129,224)"/>
<path d="M0 0 C4.875 0.875 4.875 0.875 6 2 C6.14115161 4.67058851 6.04247107 7.32432238 6 10 C5.01 10 4.02 10 3 10 C3 7.69 3 5.38 3 3 C2.01 2.67 1.02 2.34 0 2 C0 1.34 0 0.68 0 0 Z " fill="#2D2B5F" transform="translate(236,227)"/>
<path d="M0 0 C0 1.65 0 3.3 0 5 C-2.64 5 -5.28 5 -8 5 C-8 3.68 -8 2.36 -8 1 C-2.25 0 -2.25 0 0 0 Z " fill="#DADAE3" transform="translate(216,229)"/>
<path d="M0 0 C0.99 0 1.98 0 3 0 C3 3.3 3 6.6 3 10 C2.01 10 1.02 10 0 10 C0 6.7 0 3.4 0 0 Z " fill="#211F57" transform="translate(85,227)"/>
<path d="M0 0 C1.66611905 -0.042721 3.33382885 -0.04063832 5 0 C6 1 6 1 6.09765625 2.84765625 C6.06510417 4.8984375 6.03255208 6.94921875 6 9 C5.01 9 4.02 9 3 9 C2.87625 7.88625 2.7525 6.7725 2.625 5.625 C2.3534187 1.96896323 2.3534187 1.96896323 0 0 Z " fill="#211F57" transform="translate(160,228)"/>
<path d="M0 0 C0.66 0 1.32 0 2 0 C3.60725635 3.21451269 3.05748185 6.43612536 3 10 C2.01 10 1.02 10 0 10 C0 6.7 0 3.4 0 0 Z " fill="#2D2A60" transform="translate(178,227)"/>
<path d="M0 0 C1.65 0 3.3 0 5 0 C6 3 6 3 5.0625 5.1875 C4.5365625 6.0846875 4.5365625 6.0846875 4 7 C3.01 7 2.02 7 1 7 C1.020625 6.21625 1.04125 5.4325 1.0625 4.625 C1.18684063 2.01885039 1.18684063 2.01885039 0 0 Z " fill="#908FAB" transform="translate(120,227)"/>
<path d="M0 0 C0.99 0 1.98 0 3 0 C3 2.31 3 4.62 3 7 C1.35 6.67 -0.3 6.34 -2 6 C-2 5.34 -2 4.68 -2 4 C-1.34 4 -0.68 4 0 4 C0 2.68 0 1.36 0 0 Z " fill="#9291AC" transform="translate(219,230)"/>
<path d="M0 0 C0.66 1.32 1.32 2.64 2 4 C3.98 4 5.96 4 8 4 C7.34 5.32 6.68 6.64 6 8 C3.13275314 7.42655063 2.1385485 7.1385485 0 5 C-0.125 2.375 -0.125 2.375 0 0 Z " fill="#232158" transform="translate(190,229)"/>
<path d="M0 0 C2.64 0 5.28 0 8 0 C7.34 1.32 6.68 2.64 6 4 C4.35 3.67 2.7 3.34 1 3 C0.67 2.01 0.34 1.02 0 0 Z " fill="#302E62" transform="translate(90,233)"/>
<path d="M0 0 C2.475 0.495 2.475 0.495 5 1 C4.34 1.66 3.68 2.32 3 3 C2.60235737 4.98821313 2.26224651 6.98944339 2 9 C1.34 9 0.68 9 0 9 C0 6.03 0 3.06 0 0 Z " fill="#02013D" transform="translate(100,227)"/>
<path d="M0 0 C3.63 0 7.26 0 11 0 C10.67 0.99 10.34 1.98 10 3 C7.03 3 4.06 3 1 3 C0.67 2.01 0.34 1.02 0 0 Z " fill="#353366" transform="translate(102,227)"/>
<path d="M0 0 C0.66 0 1.32 0 2 0 C2 2.97 2 5.94 2 9 C1.01 8.67 0.02 8.34 -1 8 C-0.67 5.36 -0.34 2.72 0 0 Z " fill="#03023E" transform="translate(125,227)"/>
</svg>
